<mxfile host="app.diagrams.net" modified="2024-02-29T16:28:48.584Z" agent="Mozilla/5.0 (X11; Ubuntu; Linux x86_64; rv:123.0) Gecko/20100101 Firefox/123.0" version="24.0.0" etag="EEQ6NvNfB1WCOSo_Xe1-" type="github">
  <diagram name="Page-1" id="Ih15XnK7qI_331mDzQly">
    <mxGraphModel>
      <root>
        <mxCell id="0" />
        <mxCell id="1" parent="0" />
      </root>
    </mxGraphModel>
  </diagram>
</mxfile>
